<?xml version="1.0" encoding="UTF-8"?>
<svg xmlns="http://www.w3.org/2000/svg" xmlns:xlink="http://www.w3.org/1999/xlink" width="84px" height="40px" viewBox="0 0 83 40" version="1.1">
<g id="surface1">
<path style=" stroke:none;fill-rule:nonzero;fill:rgb(72.54902%,72.54902%,72.54902%);fill-opacity:1;" d="M 42.851562 6.703125 C 42.066406 6.074219 40.914062 5.738281 39.296875 5.738281 C 38.5625 5.726562 37.820312 5.792969 37.101562 5.941406 C 36.582031 6.085938 36.082031 6.320312 35.648438 6.648438 C 35.285156 6.925781 34.996094 7.308594 34.820312 7.734375 C 34.652344 8.148438 34.5625 8.585938 34.574219 9.035156 L 34.574219 9.496094 C 34.53125 9.621094 34.617188 9.707031 34.742188 9.707031 L 36.722656 9.707031 C 36.8125 9.699219 36.878906 9.628906 36.890625 9.539062 C 36.921875 9.09375 37.101562 8.664062 37.390625 8.328125 C 37.722656 7.949219 38.34375 7.746094 39.25 7.746094 C 39.636719 7.734375 40.039062 7.789062 40.402344 7.914062 C 40.65625 8.015625 40.902344 8.148438 41.101562 8.328125 C 41.398438 8.632812 41.578125 9.035156 41.601562 9.460938 L 41.601562 10.046875 C 41.601562 10.246094 41.554688 10.449219 41.476562 10.628906 C 41.410156 10.785156 41.3125 10.929688 41.191406 11.042969 C 41.101562 11.167969 40.992188 11.257812 40.855469 11.335938 C 40.769531 11.402344 40.667969 11.457031 40.570312 11.503906 C 40.523438 11.546875 40.359375 11.59375 40.027344 11.71875 C 39.695312 11.839844 39.40625 11.964844 38.996094 12.097656 C 38.585938 12.234375 38.164062 12.34375 37.753906 12.511719 C 37.34375 12.679688 36.96875 12.761719 36.636719 12.894531 C 35.980469 13.109375 35.4375 13.554688 35.105469 14.152344 C 34.761719 14.722656 34.574219 15.375 34.574219 16.035156 L 34.574219 17.335938 C 34.597656 17.707031 34.675781 18.078125 34.785156 18.425781 C 34.917969 18.851562 35.160156 19.222656 35.484375 19.511719 C 35.882812 19.90625 36.359375 20.1875 36.890625 20.355469 C 37.65625 20.589844 38.453125 20.703125 39.25 20.691406 C 40.046875 20.722656 40.847656 20.613281 41.609375 20.355469 C 42.144531 20.1875 42.640625 19.894531 43.050781 19.511719 C 43.382812 19.222656 43.628906 18.851562 43.761719 18.425781 C 43.894531 18.078125 43.960938 17.707031 43.972656 17.335938 L 43.972656 9.136719 C 43.972656 8.183594 43.5625 7.296875 42.851562 6.703125 Z M 41.113281 18.042969 C 40.78125 18.378906 40.113281 18.582031 39.25 18.582031 C 38.386719 18.582031 37.765625 18.414062 37.433594 18.078125 C 37.066406 17.628906 36.890625 17.066406 36.933594 16.484375 C 36.933594 16.191406 36.980469 15.855469 37.144531 15.609375 C 37.277344 15.394531 37.421875 15.195312 37.601562 15.027344 C 37.765625 14.902344 38.007812 14.777344 38.21875 14.644531 C 38.464844 14.519531 38.839844 14.429688 39.128906 14.308594 C 39.417969 14.171875 39.726562 14.0625 40.039062 13.972656 C 40.371094 13.894531 40.65625 13.757812 40.945312 13.679688 C 41.089844 13.636719 41.234375 13.566406 41.355469 13.464844 C 41.511719 13.378906 41.609375 13.21875 41.644531 13.050781 L 41.601562 16.484375 C 41.644531 17.046875 41.46875 17.605469 41.113281 18.042969 Z M 41.113281 18.042969 "/>
<path style=" stroke:none;fill-rule:nonzero;fill:rgb(72.54902%,72.54902%,72.54902%);fill-opacity:1;" d="M 32.269531 5.738281 L 33.589844 5.738281 C 33.675781 5.75 33.742188 5.816406 33.753906 5.90625 L 33.753906 5.941406 L 33.300781 7.699219 C 33.300781 7.789062 33.222656 7.824219 33.132812 7.824219 L 32.226562 7.824219 C 31.816406 7.8125 31.40625 7.878906 31.027344 8.039062 C 30.761719 8.136719 30.519531 8.296875 30.332031 8.496094 C 30.1875 8.65625 30.066406 8.832031 30 9.035156 C 29.953125 9.214844 29.921875 9.394531 29.910156 9.574219 L 29.910156 20.457031 C 29.921875 20.566406 29.832031 20.65625 29.730469 20.667969 C 29.722656 20.667969 29.722656 20.667969 29.710938 20.667969 L 27.726562 20.667969 C 27.628906 20.65625 27.550781 20.566406 27.5625 20.457031 L 27.5625 9.125 C 27.5625 8.832031 27.605469 8.53125 27.683594 8.25 C 27.761719 7.824219 27.96875 7.433594 28.257812 7.117188 C 28.65625 6.703125 29.132812 6.367188 29.664062 6.152344 C 30.484375 5.828125 31.382812 5.683594 32.269531 5.738281 Z M 32.269531 5.738281 "/>
<path style=" stroke:none;fill-rule:nonzero;fill:rgb(72.54902%,72.54902%,72.54902%);fill-opacity:1;" d="M 25.53125 16.777344 L 25.53125 17.28125 C 25.53125 17.59375 25.488281 17.898438 25.410156 18.199219 C 25.324219 18.625 25.121094 19.007812 24.835938 19.332031 C 24.4375 19.75 23.960938 20.085938 23.425781 20.296875 C 22.597656 20.601562 21.710938 20.746094 20.824219 20.714844 C 19.9375 20.734375 19.050781 20.601562 18.21875 20.296875 C 17.6875 20.097656 17.199219 19.761719 16.8125 19.332031 C 16.523438 19.019531 16.324219 18.625 16.234375 18.199219 C 16.148438 17.910156 16.148438 17.617188 16.113281 17.324219 L 16.113281 5.90625 C 16.101562 5.792969 16.191406 5.703125 16.292969 5.691406 C 16.300781 5.691406 16.300781 5.691406 16.3125 5.691406 L 18.253906 5.691406 C 18.363281 5.683594 18.453125 5.773438 18.464844 5.882812 C 18.464844 5.894531 18.464844 5.894531 18.464844 5.90625 L 18.464844 16.539062 C 18.472656 16.808594 18.496094 17.066406 18.550781 17.335938 C 18.617188 17.550781 18.742188 17.75 18.882812 17.921875 C 19.074219 18.132812 19.316406 18.289062 19.582031 18.378906 C 19.980469 18.515625 20.402344 18.582031 20.824219 18.59375 C 21.253906 18.605469 21.699219 18.535156 22.109375 18.378906 C 22.375 18.300781 22.617188 18.15625 22.808594 17.964844 C 22.972656 17.820312 23.085938 17.628906 23.140625 17.414062 C 23.226562 17.144531 23.261719 16.867188 23.261719 16.574219 L 23.261719 5.90625 C 23.25 5.804688 23.328125 5.703125 23.425781 5.691406 L 25.410156 5.691406 C 25.523438 5.683594 25.609375 5.773438 25.621094 5.882812 C 25.621094 5.894531 25.621094 5.894531 25.621094 5.90625 Z M 25.53125 16.777344 "/>
<path style=" stroke:none;fill-rule:nonzero;fill:rgb(72.54902%,72.54902%,72.54902%);fill-opacity:1;" d="M 12.015625 0.332031 L 13.953125 0.332031 C 14.0625 0.320312 14.152344 0.410156 14.164062 0.511719 C 14.164062 0.523438 14.164062 0.53125 14.164062 0.53125 L 14.164062 20.5 C 14.175781 20.613281 14.085938 20.703125 13.976562 20.714844 C 13.964844 20.714844 13.964844 20.714844 13.953125 20.714844 L 12.015625 20.714844 C 11.902344 20.722656 11.816406 20.636719 11.804688 20.523438 C 11.804688 20.511719 11.804688 20.511719 11.804688 20.5 L 11.804688 0.53125 C 11.847656 0.410156 11.925781 0.332031 12.015625 0.332031 Z M 12.015625 0.332031 "/>
<path style=" stroke:none;fill-rule:nonzero;fill:rgb(72.54902%,72.54902%,72.54902%);fill-opacity:1;" d="M 0.480469 25.917969 C 0.492188 25.714844 0.644531 25.546875 0.855469 25.535156 L 3.214844 25.535156 C 3.414062 25.546875 3.582031 25.707031 3.59375 25.917969 L 3.59375 39.132812 C 3.582031 39.335938 3.425781 39.503906 3.214844 39.515625 L 0.855469 39.515625 C 0.65625 39.503906 0.492188 39.34375 0.480469 39.132812 Z M 0.480469 25.917969 "/>
<path style=" stroke:none;fill-rule:nonzero;fill:rgb(72.54902%,72.54902%,72.54902%);fill-opacity:1;" d="M 6.960938 25.707031 C 6.972656 25.503906 7.140625 25.347656 7.339844 25.347656 L 7.824219 25.347656 L 15.691406 33.007812 L 15.714844 33.007812 L 15.714844 25.917969 C 15.714844 25.707031 15.882812 25.535156 16.09375 25.535156 L 18.453125 25.535156 C 18.652344 25.546875 18.816406 25.707031 18.828125 25.917969 L 18.828125 39.347656 C 18.816406 39.546875 18.652344 39.703125 18.453125 39.703125 L 18.140625 39.703125 C 18.054688 39.695312 17.964844 39.660156 17.886719 39.605469 L 10.097656 31.683594 L 10.074219 31.683594 L 10.074219 39.132812 C 10.074219 39.347656 9.910156 39.515625 9.699219 39.515625 L 7.359375 39.515625 C 7.160156 39.503906 6.996094 39.347656 6.984375 39.132812 Z M 6.960938 25.707031 "/>
<path style=" stroke:none;fill-rule:nonzero;fill:rgb(72.54902%,72.54902%,72.54902%);fill-opacity:1;" d="M 28.335938 25.347656 C 30.308594 25.347656 31.769531 25.964844 33.101562 27.195312 C 33.257812 27.320312 33.277344 27.554688 33.15625 27.722656 C 33.144531 27.734375 33.132812 27.746094 33.121094 27.757812 L 31.582031 29.382812 C 31.449219 29.519531 31.226562 29.519531 31.09375 29.382812 C 30.363281 28.734375 29.410156 28.363281 28.4375 28.363281 C 26.207031 28.363281 24.570312 30.238281 24.570312 32.46875 C 24.570312 34.691406 26.230469 36.519531 28.445312 36.519531 C 29.410156 36.519531 30.34375 36.183594 31.085938 35.566406 C 31.238281 35.441406 31.449219 35.453125 31.59375 35.585938 L 33.132812 37.238281 C 33.265625 37.394531 33.257812 37.628906 33.113281 37.773438 C 31.828125 39.03125 30.109375 39.726562 28.324219 39.714844 C 24.402344 39.714844 21.234375 36.496094 21.234375 32.535156 C 21.234375 28.578125 24.414062 25.347656 28.335938 25.347656 Z M 28.335938 25.347656 "/>
<path style=" stroke:none;fill-rule:nonzero;fill:rgb(72.54902%,72.54902%,72.54902%);fill-opacity:1;" d="M 35.484375 25.917969 C 35.484375 25.707031 35.648438 25.535156 35.859375 25.535156 L 38.210938 25.535156 C 38.410156 25.546875 38.574219 25.707031 38.585938 25.917969 L 38.585938 36.574219 L 43.273438 36.574219 C 43.484375 36.574219 43.648438 36.742188 43.648438 36.957031 L 43.648438 39.132812 C 43.648438 39.34375 43.484375 39.515625 43.273438 39.515625 L 35.859375 39.515625 C 35.648438 39.515625 35.484375 39.34375 35.484375 39.132812 Z M 35.484375 25.917969 "/>
<path style=" stroke:none;fill-rule:nonzero;fill:rgb(72.54902%,72.54902%,72.54902%);fill-opacity:1;" d="M 45.199219 25.917969 C 45.210938 25.714844 45.367188 25.546875 45.578125 25.535156 L 48.003906 25.535156 C 48.214844 25.535156 48.382812 25.707031 48.382812 25.917969 L 48.382812 33.996094 C 48.382812 35.398438 49.402344 36.507812 50.808594 36.507812 C 52.226562 36.507812 53.269531 35.386719 53.269531 33.996094 L 53.269531 25.917969 C 53.269531 25.707031 53.433594 25.535156 53.644531 25.535156 L 56.070312 25.535156 C 56.269531 25.546875 56.4375 25.707031 56.449219 25.917969 L 56.449219 34.164062 C 56.449219 37.191406 53.921875 39.714844 50.808594 39.714844 C 47.714844 39.714844 45.210938 37.203125 45.210938 34.164062 Z M 45.199219 25.917969 "/>
<path style=" stroke:none;fill-rule:nonzero;fill:rgb(72.54902%,72.54902%,72.54902%);fill-opacity:1;" d="M 59.617188 25.917969 C 59.617188 25.714844 59.773438 25.546875 59.972656 25.535156 L 64.78125 25.535156 C 68.582031 25.535156 71.695312 28.667969 71.695312 32.503906 C 71.695312 36.371094 68.59375 39.503906 64.78125 39.503906 L 59.972656 39.503906 C 59.773438 39.492188 59.617188 39.324219 59.617188 39.121094 Z M 64.582031 36.5625 C 66.808594 36.5625 68.425781 34.792969 68.425781 32.515625 C 68.425781 30.257812 66.808594 28.488281 64.582031 28.488281 L 62.6875 28.488281 L 62.6875 36.5625 Z M 64.582031 36.5625 "/>
<path style=" stroke:none;fill-rule:nonzero;fill:rgb(72.54902%,72.54902%,72.54902%);fill-opacity:1;" d="M 74.109375 25.917969 C 74.109375 25.707031 74.277344 25.535156 74.488281 25.535156 L 82.640625 25.535156 C 82.851562 25.535156 83.019531 25.707031 83.019531 25.917969 L 83.019531 28.09375 C 83.019531 28.308594 82.851562 28.476562 82.640625 28.476562 L 77.179688 28.476562 L 77.179688 30.953125 L 81.679688 30.953125 C 81.878906 30.964844 82.042969 31.125 82.054688 31.335938 L 82.054688 33.511719 C 82.054688 33.726562 81.890625 33.894531 81.679688 33.894531 L 77.179688 33.894531 L 77.179688 36.585938 L 82.640625 36.585938 C 82.851562 36.585938 83.019531 36.753906 83.019531 36.96875 L 83.019531 39.144531 C 83.019531 39.355469 82.851562 39.523438 82.640625 39.523438 L 74.488281 39.523438 C 74.277344 39.523438 74.109375 39.355469 74.109375 39.144531 Z M 74.109375 25.917969 "/>
<path style=" stroke:none;fill-rule:nonzero;fill:rgb(72.54902%,72.54902%,72.54902%);fill-opacity:1;" d="M 8.746094 6.703125 C 7.960938 6.074219 6.804688 5.738281 5.1875 5.738281 C 4.457031 5.726562 3.714844 5.792969 2.996094 5.941406 C 2.464844 6.0625 1.976562 6.308594 1.554688 6.648438 C 1.1875 6.925781 0.902344 7.308594 0.722656 7.734375 C 0.558594 8.148438 0.480469 8.585938 0.480469 9.035156 L 0.480469 9.539062 C 0.46875 9.652344 0.558594 9.742188 0.65625 9.753906 C 0.667969 9.753906 0.667969 9.753906 0.679688 9.753906 L 2.617188 9.753906 C 2.707031 9.742188 2.773438 9.675781 2.785156 9.585938 C 2.816406 9.136719 2.996094 8.710938 3.28125 8.375 C 3.617188 7.992188 4.234375 7.789062 5.144531 7.789062 C 5.53125 7.746094 5.929688 7.789062 6.308594 7.914062 C 6.5625 8.015625 6.804688 8.148438 7.007812 8.328125 C 7.304688 8.621094 7.484375 9.035156 7.503906 9.460938 L 7.503906 10.046875 C 7.503906 10.246094 7.460938 10.449219 7.382812 10.628906 C 7.316406 10.785156 7.214844 10.929688 7.09375 11.042969 C 7.007812 11.167969 6.894531 11.257812 6.761719 11.335938 C 6.671875 11.402344 6.574219 11.457031 6.472656 11.503906 C 6.429688 11.546875 6.261719 11.59375 5.941406 11.71875 C 5.621094 11.839844 5.320312 11.964844 4.910156 12.097656 C 4.5 12.234375 4.09375 12.34375 3.671875 12.511719 C 3.25 12.679688 2.871094 12.761719 2.539062 12.894531 C 1.898438 13.109375 1.34375 13.554688 1.011719 14.152344 C 0.667969 14.722656 0.480469 15.375 0.46875 16.035156 L 0.46875 17.324219 C 0.492188 17.695312 0.566406 18.066406 0.679688 18.414062 C 0.8125 18.839844 1.054688 19.210938 1.378906 19.5 C 1.777344 19.894531 2.253906 20.175781 2.785156 20.34375 C 3.550781 20.578125 4.347656 20.691406 5.144531 20.679688 C 5.941406 20.714844 6.738281 20.601562 7.503906 20.34375 C 8.035156 20.175781 8.535156 19.882812 8.957031 19.5 C 9.289062 19.210938 9.53125 18.839844 9.65625 18.414062 C 9.789062 18.066406 9.855469 17.695312 9.863281 17.324219 L 9.863281 9.125 C 9.863281 8.183594 9.453125 7.296875 8.746094 6.703125 Z M 7.050781 18.042969 C 6.71875 18.378906 6.097656 18.582031 5.1875 18.582031 C 4.28125 18.582031 3.660156 18.414062 3.328125 18.078125 C 2.960938 17.628906 2.785156 17.066406 2.828125 16.484375 C 2.828125 16.179688 2.90625 15.878906 3.027344 15.609375 C 3.160156 15.394531 3.304688 15.207031 3.480469 15.027344 C 3.648438 14.902344 3.890625 14.777344 4.101562 14.644531 C 4.347656 14.519531 4.722656 14.429688 5.011719 14.308594 C 5.300781 14.171875 5.609375 14.0625 5.921875 13.972656 C 6.253906 13.894531 6.539062 13.757812 6.828125 13.679688 C 6.972656 13.636719 7.117188 13.566406 7.238281 13.464844 C 7.394531 13.378906 7.492188 13.21875 7.527344 13.050781 L 7.527344 16.484375 C 7.605469 17.054688 7.417969 17.617188 7.050781 18.042969 Z M 7.050781 18.042969 "/>
</g>
</svg>
